<svg xmlns="http://www.w3.org/2000/svg" width="400" height="480" viewBox="0 0 400 480">
  <rect width="400" height="480" rx="12" fill="#0a0e14"/>
  <!-- Logo -->
  <rect x="16" y="14" width="28" height="28" rx="6" fill="#d4a574"/>
  <text x="30" y="34" font-family="system-ui,sans-serif" font-size="14" font-weight="700" fill="#0d1117" text-anchor="middle">C²</text>
  <text x="56" y="33" font-family="system-ui,sans-serif" font-size="13" font-weight="600" fill="#e6edf3">Co-Copilot</text>
  <text x="370" y="33" font-family="system-ui,sans-serif" font-size="14" fill="#8b949e" text-anchor="end">◀</text>
  <!-- Divider -->
  <line x1="0" y1="52" x2="400" y2="52" stroke="#1b2028" stroke-width="1"/>
  <!-- Projects section -->
  <text x="20" y="78" font-family="system-ui,sans-serif" font-size="9" font-weight="600" fill="#484f58" letter-spacing="1.2">PROJECTS</text>
  <text x="376" y="78" font-family="system-ui,sans-serif" font-size="16" fill="#8b949e" text-anchor="end">+</text>
  <!-- Active project -->
  <rect x="12" y="88" width="376" height="30" rx="6" fill="rgba(255,255,255,0.06)"/>
  <text x="24" y="108" font-family="system-ui,sans-serif" font-size="13" fill="#e6edf3">Personal Research</text>
  <!-- Other projects -->
  <rect x="12" y="122" width="376" height="30" rx="6" fill="transparent"/>
  <text x="24" y="142" font-family="system-ui,sans-serif" font-size="13" fill="#8b949e">Work — Q2 Planning</text>
  <rect x="12" y="156" width="376" height="30" rx="6" fill="transparent"/>
  <text x="24" y="176" font-family="system-ui,sans-serif" font-size="13" fill="#8b949e">Raspberry Pi Setup</text>
  <rect x="12" y="190" width="376" height="30" rx="6" fill="transparent"/>
  <text x="24" y="210" font-family="system-ui,sans-serif" font-size="13" fill="#8b949e">Learning Rust</text>
  <rect x="12" y="224" width="376" height="30" rx="6" fill="transparent"/>
  <text x="24" y="244" font-family="system-ui,sans-serif" font-size="13" fill="#8b949e">Trip Planning</text>
  <!-- Chats section -->
  <text x="20" y="282" font-family="system-ui,sans-serif" font-size="9" font-weight="600" fill="#484f58" letter-spacing="1.2">CHATS</text>
  <text x="376" y="282" font-family="system-ui,sans-serif" font-size="16" fill="#8b949e" text-anchor="end">+</text>
  <!-- Active chat -->
  <rect x="12" y="292" width="376" height="42" rx="6" fill="rgba(255,255,255,0.06)"/>
  <text x="24" y="310" font-family="system-ui,sans-serif" font-size="13" fill="#e6edf3">Explain quantum entanglement</text>
  <text x="24" y="326" font-family="system-ui,sans-serif" font-size="9" fill="#484f58">16/04/2026</text>
  <!-- Other chats -->
  <rect x="12" y="338" width="376" height="42" rx="6" fill="transparent"/>
  <text x="24" y="356" font-family="system-ui,sans-serif" font-size="13" fill="#8b949e">Compare RNA vs DNA structure</text>
  <text x="24" y="372" font-family="system-ui,sans-serif" font-size="9" fill="#484f58">15/04/2026</text>
  <rect x="12" y="384" width="376" height="42" rx="6" fill="transparent"/>
  <text x="24" y="402" font-family="system-ui,sans-serif" font-size="13" fill="#8b949e">Black hole information paradox</text>
  <text x="24" y="418" font-family="system-ui,sans-serif" font-size="9" fill="#484f58">14/04/2026</text>
  <rect x="12" y="430" width="376" height="42" rx="6" fill="transparent"/>
  <text x="24" y="448" font-family="system-ui,sans-serif" font-size="13" fill="#8b949e">Help me understand CRISPR</text>
  <text x="24" y="464" font-family="system-ui,sans-serif" font-size="9" fill="#484f58">12/04/2026</text>
</svg>
