<svg xmlns="http://www.w3.org/2000/svg" width="400" height="480" viewBox="0 0 400 480">
  <rect width="400" height="480" rx="12" fill="#161b22"/>
  <!-- xAI group -->
  <text x="20" y="30" font-family="system-ui,sans-serif" font-size="10" font-weight="600" fill="#a8cc8c" letter-spacing="1">✦ XAI</text>
  <rect x="10" y="42" width="380" height="34" rx="6" fill="transparent"/>
  <text x="24" y="64" font-family="system-ui,sans-serif" font-size="13" fill="#c9d1d9">Grok 3</text>
  <rect x="332" y="50" width="48" height="16" rx="4" fill="rgba(212,165,116,0.12)"/><text x="356" y="62" font-family="system-ui,sans-serif" font-size="9" fill="#d4a574" text-anchor="middle">premium</text>
  <rect x="10" y="80" width="380" height="34" rx="6" fill="transparent"/>
  <text x="24" y="102" font-family="system-ui,sans-serif" font-size="13" fill="#c9d1d9">Grok 3 Mini</text>
  <rect x="332" y="88" width="48" height="16" rx="4" fill="rgba(212,165,116,0.12)"/><text x="356" y="100" font-family="system-ui,sans-serif" font-size="9" fill="#d4a574" text-anchor="middle">premium</text>
  <rect x="10" y="118" width="380" height="34" rx="6" fill="transparent"/>
  <text x="24" y="140" font-family="system-ui,sans-serif" font-size="13" fill="#636e7b" font-style="italic">Claude models — coming soon</text>
  <!-- OpenAI group -->
  <text x="20" y="178" font-family="system-ui,sans-serif" font-size="10" font-weight="600" fill="#74b9ff" letter-spacing="1">● OPENAI</text>
  <rect x="10" y="190" width="380" height="34" rx="6" fill="transparent"/>
  <text x="24" y="212" font-family="system-ui,sans-serif" font-size="13" fill="#c9d1d9">GPT-5.4</text>
  <rect x="290" y="198" width="38" height="16" rx="4" fill="rgba(85,239,196,0.12)"/><text x="309" y="210" font-family="system-ui,sans-serif" font-size="9" fill="#55efc4" text-anchor="middle">vision</text>
  <rect x="332" y="198" width="48" height="16" rx="4" fill="rgba(212,165,116,0.12)"/><text x="356" y="210" font-family="system-ui,sans-serif" font-size="9" fill="#d4a574" text-anchor="middle">premium</text>
  <rect x="10" y="228" width="380" height="34" rx="6" fill="transparent"/>
  <text x="24" y="250" font-family="system-ui,sans-serif" font-size="13" fill="#c9d1d9">GPT-4.1</text>
  <rect x="290" y="236" width="38" height="16" rx="4" fill="rgba(85,239,196,0.12)"/><text x="309" y="248" font-family="system-ui,sans-serif" font-size="9" fill="#55efc4" text-anchor="middle">vision</text>
  <rect x="10" y="266" width="380" height="34" rx="6" fill="transparent"/>
  <text x="24" y="288" font-family="system-ui,sans-serif" font-size="13" fill="#c9d1d9">GPT-4o Mini</text>
  <!-- Google group -->
  <text x="20" y="326" font-family="system-ui,sans-serif" font-size="10" font-weight="600" fill="#55efc4" letter-spacing="1">◇ GOOGLE</text>
  <rect x="10" y="338" width="380" height="34" rx="6" fill="transparent"/>
  <text x="24" y="360" font-family="system-ui,sans-serif" font-size="13" fill="#c9d1d9">Gemini 2.5 Pro</text>
  <rect x="290" y="346" width="38" height="16" rx="4" fill="rgba(85,239,196,0.12)"/><text x="309" y="358" font-family="system-ui,sans-serif" font-size="9" fill="#55efc4" text-anchor="middle">vision</text>
  <rect x="332" y="346" width="48" height="16" rx="4" fill="rgba(212,165,116,0.12)"/><text x="356" y="358" font-family="system-ui,sans-serif" font-size="9" fill="#d4a574" text-anchor="middle">premium</text>
  <rect x="10" y="376" width="380" height="34" rx="6" fill="transparent"/>
  <text x="24" y="398" font-family="system-ui,sans-serif" font-size="13" fill="#c9d1d9">Gemini 2.5 Flash</text>
  <rect x="290" y="384" width="38" height="16" rx="4" fill="rgba(85,239,196,0.12)"/><text x="309" y="396" font-family="system-ui,sans-serif" font-size="9" fill="#55efc4" text-anchor="middle">vision</text>
  <!-- Meta group -->
  <text x="20" y="436" font-family="system-ui,sans-serif" font-size="10" font-weight="600" fill="#a29bfe" letter-spacing="1">▲ META</text>
  <rect x="10" y="448" width="380" height="34" rx="6" fill="transparent"/>
  <text x="24" y="470" font-family="system-ui,sans-serif" font-size="13" fill="#c9d1d9">Llama 4 Maverick</text>
</svg>
